%TF.GenerationSoftware,KiCad,Pcbnew,9.0.7*%
%TF.CreationDate,2026-01-11T21:32:54-05:00*%
%TF.ProjectId,Module Temperature Reader,4d6f6475-6c65-4205-9465-6d7065726174,rev?*%
%TF.SameCoordinates,Original*%
%TF.FileFunction,Soldermask,Bot*%
%TF.FilePolarity,Negative*%
%FSLAX46Y46*%
G04 Gerber Fmt 4.6, Leading zero omitted, Abs format (unit mm)*
G04 Created by KiCad (PCBNEW 9.0.7) date 2026-01-11 21:32:54*
%MOMM*%
%LPD*%
G01*
G04 APERTURE LIST*
G04 Aperture macros list*
%AMRoundRect*
0 Rectangle with rounded corners*
0 $1 Rounding radius*
0 $2 $3 $4 $5 $6 $7 $8 $9 X,Y pos of 4 corners*
0 Add a 4 corners polygon primitive as box body*
4,1,4,$2,$3,$4,$5,$6,$7,$8,$9,$2,$3,0*
0 Add four circle primitives for the rounded corners*
1,1,$1+$1,$2,$3*
1,1,$1+$1,$4,$5*
1,1,$1+$1,$6,$7*
1,1,$1+$1,$8,$9*
0 Add four rect primitives between the rounded corners*
20,1,$1+$1,$2,$3,$4,$5,0*
20,1,$1+$1,$4,$5,$6,$7,0*
20,1,$1+$1,$6,$7,$8,$9,0*
20,1,$1+$1,$8,$9,$2,$3,0*%
G04 Aperture macros list end*
%ADD10C,2.000000*%
%ADD11R,1.800000X1.800000*%
%ADD12C,1.800000*%
%ADD13O,1.600000X1.600000*%
%ADD14R,1.600000X1.600000*%
%ADD15RoundRect,0.250000X-0.750000X0.600000X-0.750000X-0.600000X0.750000X-0.600000X0.750000X0.600000X0*%
%ADD16O,2.000000X1.700000*%
%ADD17C,1.700000*%
%ADD18R,1.700000X1.700000*%
G04 APERTURE END LIST*
D10*
%TO.C,REF\u002A\u002A*%
X148500000Y-109500000D03*
%TD*%
%TO.C,REF\u002A\u002A*%
X106500000Y-109500000D03*
%TD*%
%TO.C,REF\u002A\u002A*%
X148500000Y-57500000D03*
%TD*%
%TO.C,REF\u002A\u002A*%
X106500000Y-57500000D03*
%TD*%
D11*
%TO.C,D1*%
X145000000Y-103500000D03*
D12*
X145000000Y-106040000D03*
%TD*%
D13*
%TO.C,A1*%
X126130000Y-64950000D03*
X126130000Y-67490000D03*
X126130000Y-70030000D03*
X126130000Y-72570000D03*
X126130000Y-75110000D03*
X126130000Y-77650000D03*
X126130000Y-80190000D03*
X126130000Y-82730000D03*
X126130000Y-85270000D03*
X126130000Y-87810000D03*
X126130000Y-90350000D03*
X126130000Y-92890000D03*
X126130000Y-95430000D03*
X126130000Y-97970000D03*
X126130000Y-100510000D03*
X110890000Y-100510000D03*
X110890000Y-97970000D03*
X110890000Y-95430000D03*
X110890000Y-92890000D03*
X110890000Y-90350000D03*
X110890000Y-87810000D03*
X110890000Y-85270000D03*
X110890000Y-82730000D03*
X110890000Y-80190000D03*
X110890000Y-77650000D03*
X110890000Y-75110000D03*
X110890000Y-72570000D03*
X110890000Y-70030000D03*
X110890000Y-67490000D03*
D14*
X110890000Y-64950000D03*
%TD*%
D15*
%TO.C,J1*%
X140000000Y-67500000D03*
D16*
X140000000Y-70000000D03*
%TD*%
D17*
%TO.C,J2*%
X131000000Y-82920000D03*
X131000000Y-85460000D03*
X131000000Y-88000000D03*
X131000000Y-90540000D03*
X131000000Y-93080000D03*
D18*
X131000000Y-95620000D03*
%TD*%
M02*
