%TF.GenerationSoftware,KiCad,Pcbnew,9.0.7*%
%TF.CreationDate,2026-01-11T21:32:54-05:00*%
%TF.ProjectId,Module Temperature Reader,4d6f6475-6c65-4205-9465-6d7065726174,rev?*%
%TF.SameCoordinates,Original*%
%TF.FileFunction,Copper,L1,Top*%
%TF.FilePolarity,Positive*%
%FSLAX46Y46*%
G04 Gerber Fmt 4.6, Leading zero omitted, Abs format (unit mm)*
G04 Created by KiCad (PCBNEW 9.0.7) date 2026-01-11 21:32:54*
%MOMM*%
%LPD*%
G01*
G04 APERTURE LIST*
G04 Aperture macros list*
%AMRoundRect*
0 Rectangle with rounded corners*
0 $1 Rounding radius*
0 $2 $3 $4 $5 $6 $7 $8 $9 X,Y pos of 4 corners*
0 Add a 4 corners polygon primitive as box body*
4,1,4,$2,$3,$4,$5,$6,$7,$8,$9,$2,$3,0*
0 Add four circle primitives for the rounded corners*
1,1,$1+$1,$2,$3*
1,1,$1+$1,$4,$5*
1,1,$1+$1,$6,$7*
1,1,$1+$1,$8,$9*
0 Add four rect primitives between the rounded corners*
20,1,$1+$1,$2,$3,$4,$5,0*
20,1,$1+$1,$4,$5,$6,$7,0*
20,1,$1+$1,$6,$7,$8,$9,0*
20,1,$1+$1,$8,$9,$2,$3,0*%
G04 Aperture macros list end*
%TA.AperFunction,ComponentPad*%
%ADD10R,1.800000X1.800000*%
%TD*%
%TA.AperFunction,ComponentPad*%
%ADD11C,1.800000*%
%TD*%
%TA.AperFunction,SMDPad,CuDef*%
%ADD12RoundRect,0.250000X-0.625000X0.312500X-0.625000X-0.312500X0.625000X-0.312500X0.625000X0.312500X0*%
%TD*%
%TA.AperFunction,SMDPad,CuDef*%
%ADD13RoundRect,0.250000X-0.312500X-0.625000X0.312500X-0.625000X0.312500X0.625000X-0.312500X0.625000X0*%
%TD*%
%TA.AperFunction,SMDPad,CuDef*%
%ADD14RoundRect,0.250000X0.650000X-0.325000X0.650000X0.325000X-0.650000X0.325000X-0.650000X-0.325000X0*%
%TD*%
%TA.AperFunction,ComponentPad*%
%ADD15O,1.600000X1.600000*%
%TD*%
%TA.AperFunction,ComponentPad*%
%ADD16R,1.600000X1.600000*%
%TD*%
%TA.AperFunction,ComponentPad*%
%ADD17RoundRect,0.250000X-0.750000X0.600000X-0.750000X-0.600000X0.750000X-0.600000X0.750000X0.600000X0*%
%TD*%
%TA.AperFunction,ComponentPad*%
%ADD18O,2.000000X1.700000*%
%TD*%
%TA.AperFunction,ComponentPad*%
%ADD19C,1.700000*%
%TD*%
%TA.AperFunction,ComponentPad*%
%ADD20R,1.700000X1.700000*%
%TD*%
%TA.AperFunction,Conductor*%
%ADD21C,0.200000*%
%TD*%
G04 APERTURE END LIST*
D10*
%TO.P,D1,1,K*%
%TO.N,Net-(D1-K)*%
X145000000Y-103500000D03*
D11*
%TO.P,D1,2,A*%
%TO.N,Net-(A1-D5)*%
X145000000Y-106040000D03*
%TD*%
D12*
%TO.P,R2,1*%
%TO.N,Net-(D1-K)*%
X141150000Y-103397500D03*
%TO.P,R2,2*%
%TO.N,Net-(J1-Pin_1)*%
X141150000Y-106322500D03*
%TD*%
D13*
%TO.P,R1,1*%
%TO.N,+5V*%
X145075000Y-76500000D03*
%TO.P,R1,2*%
%TO.N,Net-(A1-A0)*%
X148000000Y-76500000D03*
%TD*%
D14*
%TO.P,C1,2*%
%TO.N,Net-(J1-Pin_1)*%
X148000000Y-67330000D03*
%TO.P,C1,1*%
%TO.N,Net-(A1-A0)*%
X148000000Y-70280000D03*
%TD*%
D15*
%TO.P,A1,30,VIN*%
%TO.N,unconnected-(A1-VIN-Pad30)*%
X126130000Y-64950000D03*
%TO.P,A1,29,GND*%
%TO.N,Net-(J1-Pin_1)*%
X126130000Y-67490000D03*
%TO.P,A1,28,~{RESET}*%
%TO.N,unconnected-(A1-~{RESET}-Pad28)*%
X126130000Y-70030000D03*
%TO.P,A1,27,+5V*%
%TO.N,+5V*%
X126130000Y-72570000D03*
%TO.P,A1,26,A7*%
%TO.N,unconnected-(A1-A7-Pad26)*%
X126130000Y-75110000D03*
%TO.P,A1,25,A6*%
%TO.N,unconnected-(A1-A6-Pad25)*%
X126130000Y-77650000D03*
%TO.P,A1,24,A5*%
%TO.N,unconnected-(A1-A5-Pad24)*%
X126130000Y-80190000D03*
%TO.P,A1,23,A4*%
%TO.N,unconnected-(A1-A4-Pad23)*%
X126130000Y-82730000D03*
%TO.P,A1,22,A3*%
%TO.N,unconnected-(A1-A3-Pad22)*%
X126130000Y-85270000D03*
%TO.P,A1,21,A2*%
%TO.N,unconnected-(A1-A2-Pad21)*%
X126130000Y-87810000D03*
%TO.P,A1,20,A1*%
%TO.N,unconnected-(A1-A1-Pad20)*%
X126130000Y-90350000D03*
%TO.P,A1,19,A0*%
%TO.N,Net-(A1-A0)*%
X126130000Y-92890000D03*
%TO.P,A1,18,AREF*%
%TO.N,unconnected-(A1-AREF-Pad18)*%
X126130000Y-95430000D03*
%TO.P,A1,17,3V3*%
%TO.N,unconnected-(A1-3V3-Pad17)*%
X126130000Y-97970000D03*
%TO.P,A1,16,D13*%
%TO.N,Net-(A1-D13)*%
X126130000Y-100510000D03*
%TO.P,A1,15,D12*%
%TO.N,Net-(A1-D12)*%
X110890000Y-100510000D03*
%TO.P,A1,14,D11*%
%TO.N,Net-(A1-D11)*%
X110890000Y-97970000D03*
%TO.P,A1,13,D10*%
%TO.N,unconnected-(A1-D10-Pad13)*%
X110890000Y-95430000D03*
%TO.P,A1,12,D9*%
%TO.N,unconnected-(A1-D9-Pad12)*%
X110890000Y-92890000D03*
%TO.P,A1,11,D8*%
%TO.N,unconnected-(A1-D8-Pad11)*%
X110890000Y-90350000D03*
%TO.P,A1,10,D7*%
%TO.N,unconnected-(A1-D7-Pad10)*%
X110890000Y-87810000D03*
%TO.P,A1,9,D6*%
%TO.N,unconnected-(A1-D6-Pad9)*%
X110890000Y-85270000D03*
%TO.P,A1,8,D5*%
%TO.N,Net-(A1-D5)*%
X110890000Y-82730000D03*
%TO.P,A1,7,D4*%
%TO.N,Net-(A1-D4)*%
X110890000Y-80190000D03*
%TO.P,A1,6,D3*%
%TO.N,unconnected-(A1-D3-Pad6)*%
X110890000Y-77650000D03*
%TO.P,A1,5,D2*%
%TO.N,unconnected-(A1-D2-Pad5)*%
X110890000Y-75110000D03*
%TO.P,A1,4,GND*%
%TO.N,unconnected-(A1-GND-Pad4)*%
X110890000Y-72570000D03*
%TO.P,A1,3,~{RESET}*%
%TO.N,unconnected-(A1-~{RESET}-Pad3)*%
X110890000Y-70030000D03*
%TO.P,A1,2,D0/RX*%
%TO.N,unconnected-(A1-D0{slash}RX-Pad2)*%
X110890000Y-67490000D03*
D16*
%TO.P,A1,1,D1/TX*%
%TO.N,unconnected-(A1-D1{slash}TX-Pad1)*%
X110890000Y-64950000D03*
%TD*%
D17*
%TO.P,J1,1,Pin_1*%
%TO.N,Net-(J1-Pin_1)*%
X140000000Y-67500000D03*
D18*
%TO.P,J1,2,Pin_2*%
%TO.N,Net-(A1-A0)*%
X140000000Y-70000000D03*
%TD*%
D19*
%TO.P,J2,6,Pin_6*%
%TO.N,Net-(A1-D4)*%
X131000000Y-82920000D03*
%TO.P,J2,5,Pin_5*%
%TO.N,Net-(A1-D13)*%
X131000000Y-85460000D03*
%TO.P,J2,4,Pin_4*%
%TO.N,Net-(A1-D11)*%
X131000000Y-88000000D03*
%TO.P,J2,3,Pin_3*%
%TO.N,Net-(A1-D12)*%
X131000000Y-90540000D03*
%TO.P,J2,2,Pin_2*%
%TO.N,+5V*%
X131000000Y-93080000D03*
D20*
%TO.P,J2,1,Pin_1*%
%TO.N,Net-(J1-Pin_1)*%
X131000000Y-95620000D03*
%TD*%
D21*
%TO.N,Net-(A1-D5)*%
X145000000Y-106040000D02*
X143854000Y-107186000D01*
X109388000Y-100787000D02*
X109388000Y-82730000D01*
X143854000Y-107186000D02*
X115787000Y-107186000D01*
X115787000Y-107186000D02*
X109388000Y-100787000D01*
%TO.N,Net-(D1-K)*%
X141150000Y-103397500D02*
X144897500Y-103397500D01*
X144897500Y-103397500D02*
X145000000Y-103500000D01*
%TO.N,Net-(J1-Pin_1)*%
X141150000Y-106322500D02*
X131000000Y-96172500D01*
X131000000Y-96172500D02*
X131000000Y-95620000D01*
%TO.N,Net-(A1-A0)*%
X126130000Y-92890000D02*
X127709000Y-94469000D01*
X127709000Y-94469000D02*
X131583900Y-94469000D01*
X131583900Y-94469000D02*
X148000000Y-78052900D01*
X148000000Y-78052900D02*
X148000000Y-76500000D01*
%TO.N,Net-(J1-Pin_1)*%
X131000000Y-95620000D02*
X149201000Y-77419000D01*
X149201000Y-77419000D02*
X149201000Y-68531000D01*
X149201000Y-68531000D02*
X148000000Y-67330000D01*
%TO.N,+5V*%
X131000000Y-93080000D02*
X145075000Y-79005000D01*
X145075000Y-79005000D02*
X145075000Y-76500000D01*
%TO.N,Net-(A1-D12)*%
X131000000Y-90540000D02*
X132552000Y-88988000D01*
X132552000Y-88988000D02*
X132552000Y-82514950D01*
X126586050Y-76549000D02*
X113886050Y-76549000D01*
X109789000Y-79733950D02*
X109789000Y-99409000D01*
X132552000Y-82514950D02*
X126586050Y-76549000D01*
X113886050Y-76549000D02*
X111346050Y-79089000D01*
X111346050Y-79089000D02*
X110433950Y-79089000D01*
X110433950Y-79089000D02*
X109789000Y-79733950D01*
X109789000Y-99409000D02*
X110890000Y-100510000D01*
%TO.N,Net-(A1-D11)*%
X131000000Y-88000000D02*
X132151000Y-86849000D01*
X131476760Y-84071000D02*
X124789000Y-84071000D01*
X132151000Y-86849000D02*
X132151000Y-84745240D01*
X132151000Y-84745240D02*
X131476760Y-84071000D01*
X124789000Y-84071000D02*
X110890000Y-97970000D01*
%TO.N,Net-(A1-D13)*%
X131000000Y-85460000D02*
X129849000Y-86611000D01*
X125029000Y-99409000D02*
X126130000Y-100510000D01*
X129849000Y-86611000D02*
X129849000Y-88526050D01*
X129849000Y-88526050D02*
X126586050Y-91789000D01*
X126586050Y-91789000D02*
X125673950Y-91789000D01*
X125029000Y-92433950D02*
X125029000Y-99409000D01*
X125673950Y-91789000D02*
X125029000Y-92433950D01*
%TO.N,Net-(A1-D4)*%
X131000000Y-82920000D02*
X127169000Y-79089000D01*
X127169000Y-79089000D02*
X111991000Y-79089000D01*
X111991000Y-79089000D02*
X110890000Y-80190000D01*
%TO.N,Net-(A1-A0)*%
X140000000Y-70000000D02*
X140298660Y-70000000D01*
%TO.N,+5V*%
X145075000Y-76500000D02*
X141145000Y-72570000D01*
X141145000Y-72570000D02*
X126130000Y-72570000D01*
%TO.N,Net-(A1-A0)*%
X148000000Y-70280000D02*
X148000000Y-76500000D01*
X148000000Y-70280000D02*
X140280000Y-70280000D01*
X140280000Y-70280000D02*
X140000000Y-70000000D01*
%TO.N,Net-(J1-Pin_1)*%
X148000000Y-67330000D02*
X140170000Y-67330000D01*
X140170000Y-67330000D02*
X140000000Y-67500000D01*
X126130000Y-67490000D02*
X139990000Y-67490000D01*
X139990000Y-67490000D02*
X140000000Y-67500000D01*
%TO.N,Net-(A1-D13)*%
X126530000Y-100510000D02*
X126130000Y-100510000D01*
%TD*%
M02*
