M48
; DRILL file {KiCad 9.0.7} date 2026-01-11T21:33:09-0500
; FORMAT={-:-/ absolute / metric / decimal}
; #@! TF.CreationDate,2026-01-11T21:33:09-05:00
; #@! TF.GenerationSoftware,Kicad,Pcbnew,9.0.7
; #@! TF.FileFunction,Plated,1,2,PTH
FMAT,2
METRIC
; #@! TA.AperFunction,Plated,PTH,ComponentDrill
T1C0.900
; #@! TA.AperFunction,Plated,PTH,ComponentDrill
T2C1.000
%
G90
G05
T1
X145.0Y-103.5
X145.0Y-106.04
T2
X110.89Y-64.95
X110.89Y-67.49
X110.89Y-70.03
X110.89Y-72.57
X110.89Y-75.11
X110.89Y-77.65
X110.89Y-80.19
X110.89Y-82.73
X110.89Y-85.27
X110.89Y-87.81
X110.89Y-90.35
X110.89Y-92.89
X110.89Y-95.43
X110.89Y-97.97
X110.89Y-100.51
X126.13Y-64.95
X126.13Y-67.49
X126.13Y-70.03
X126.13Y-72.57
X126.13Y-75.11
X126.13Y-77.65
X126.13Y-80.19
X126.13Y-82.73
X126.13Y-85.27
X126.13Y-87.81
X126.13Y-90.35
X126.13Y-92.89
X126.13Y-95.43
X126.13Y-97.97
X126.13Y-100.51
X131.0Y-82.92
X131.0Y-85.46
X131.0Y-88.0
X131.0Y-90.54
X131.0Y-93.08
X131.0Y-95.62
X140.0Y-67.5
X140.0Y-70.0
M30
